# xmcd CD database file
#
# Track frame offsets:
#	150
#	16047
#	29434
#	45242
#
# Disc length: 775 seconds
#
# Revision: 0
# Processed by: cddbd v1.5.2PL0 Copyright (c) Steve Scherf et al.
# Submitted via: CDex 1.70beta3
#
DISCID=1f030504
DTITLE=フェアリーズ - Synchronized ～シンクロ～
DYEAR=2017
DGENRE=VISION FACTORY
TTITLE0=Synchronized ～シンクロ～
TTITLE1=The Fairytale
TTITLE2=Synchronized ～シンクロ～ (Instrumental)
TTITLE3=The Fairytale (Instrumental)
EXTD=YEAR: 2017
EXTT0=
EXTT1=
EXTT2=
EXTT3=
PLAYORDER=
